<svg width="32" height="32" viewBox="0 0 32 32" fill="none" xmlns="http://www.w3.org/2000/svg">
<path d="M12.5 27.5H4.5C4.10231 27.4996 3.72103 27.3414 3.43982 27.0602C3.15861 26.779 3.00043 26.3977 3 26V6.5C3.00043 6.10231 3.15861 5.72103 3.43982 5.43982C3.72103 5.15861 4.10231 5.00044 4.5 5H6.5V6C6.50043 6.39769 6.65861 6.77897 6.93982 7.06018C7.22103 7.34139 7.60231 7.49957 8 7.5H16C16.3977 7.49957 16.779 7.34139 17.0602 7.06018C17.3414 6.77897 17.4996 6.39769 17.5 6V5H19.5C19.8977 5.00044 20.279 5.15861 20.5602 5.43982C20.8414 5.72103 20.9996 6.10231 21 6.5V13.5C21 13.6326 21.0527 13.7598 21.1464 13.8536C21.2402 13.9473 21.3674 14 21.5 14C21.6326 14 21.7598 13.9473 21.8536 13.8536C21.9473 13.7598 22 13.6326 22 13.5V6.5C21.9992 5.8372 21.7356 5.20177 21.2669 4.73309C20.7982 4.26442 20.1628 4.00078 19.5 4H17.4079C17.3051 3.70837 17.1147 3.45568 16.8626 3.27664C16.6105 3.09759 16.3092 3.00095 16 3H14.4497C14.3344 2.43539 14.0276 1.92795 13.5812 1.56351C13.1348 1.19907 12.5763 1.00001 12 1.00001C11.4237 1.00001 10.8652 1.19907 10.4188 1.56351C9.97239 1.92795 9.6656 2.43539 9.55029 3H8C7.69081 3.00095 7.38949 3.09759 7.13741 3.27664C6.88533 3.45568 6.69486 3.70837 6.59213 4H4.5C3.8372 4.00078 3.20176 4.26442 2.73309 4.73309C2.26442 5.20177 2.00078 5.8372 2 6.5V26C2.00078 26.6628 2.26442 27.2982 2.73309 27.7669C3.20176 28.2356 3.8372 28.4992 4.5 28.5H12.5C12.6326 28.5 12.7598 28.4473 12.8536 28.3536C12.9473 28.2598 13 28.1326 13 28C13 27.8674 12.9473 27.7402 12.8536 27.6464C12.7598 27.5527 12.6326 27.5 12.5 27.5ZM7.5 4.5C7.50009 4.36742 7.5528 4.2403 7.64654 4.14655C7.74029 4.0528 7.86742 4.00009 8 4H10C10.0657 4.00004 10.1307 3.98713 10.1914 3.96202C10.2521 3.9369 10.3072 3.90008 10.3536 3.85364C10.4001 3.8072 10.4369 3.75207 10.462 3.69139C10.4871 3.63071 10.5 3.56567 10.5 3.5C10.5 3.10218 10.658 2.72065 10.9393 2.43934C11.2206 2.15804 11.6022 2 12 2C12.3978 2 12.7794 2.15804 13.0607 2.43934C13.342 2.72065 13.5 3.10218 13.5 3.5C13.5 3.56567 13.5129 3.63071 13.538 3.69139C13.5631 3.75207 13.5999 3.8072 13.6464 3.85364C13.6928 3.90008 13.7479 3.9369 13.8086 3.96202C13.8693 3.98713 13.9343 4.00004 14 4H16C16.1326 4.00009 16.2597 4.0528 16.3535 4.14655C16.4472 4.2403 16.4999 4.36742 16.5 4.5V6C16.4999 6.13258 16.4472 6.25971 16.3535 6.35346C16.2597 6.44721 16.1326 6.49991 16 6.5H8C7.86742 6.49991 7.74029 6.44721 7.64654 6.35346C7.5528 6.25971 7.50009 6.13258 7.5 6V4.5ZM9 10C9.00004 9.93433 8.98713 9.8693 8.96202 9.80862C8.9369 9.74794 8.90007 9.6928 8.85364 9.64637C8.8072 9.59993 8.75207 9.5631 8.69139 9.53799C8.63071 9.51287 8.56567 9.49996 8.5 9.5H5.5C5.43433 9.49996 5.36929 9.51287 5.30861 9.53799C5.24793 9.5631 5.1928 9.59993 5.14636 9.64637C5.09993 9.6928 5.0631 9.74794 5.03798 9.80862C5.01287 9.8693 4.99996 9.93433 5 10V13C4.99996 13.0657 5.01287 13.1307 5.03798 13.1914C5.0631 13.2521 5.09993 13.3072 5.14636 13.3536C5.1928 13.4001 5.24793 13.4369 5.30861 13.462C5.36929 13.4871 5.43433 13.5 5.5 13.5H8.5C8.56567 13.5 8.63071 13.4871 8.69139 13.462C8.75207 13.4369 8.8072 13.4001 8.85364 13.3536C8.90007 13.3072 8.9369 13.2521 8.96202 13.1914C8.98713 13.1307 9.00004 13.0657 9 13V10ZM8 12.5H6V10.5H8V12.5ZM9 16C9.00004 15.9343 8.98713 15.8693 8.96202 15.8086C8.9369 15.7479 8.90007 15.6928 8.85364 15.6464C8.8072 15.5999 8.75207 15.5631 8.69139 15.538C8.63071 15.5129 8.56567 15.5 8.5 15.5H5.5C5.43433 15.5 5.36929 15.5129 5.30861 15.538C5.24793 15.5631 5.1928 15.5999 5.14636 15.6464C5.09993 15.6928 5.0631 15.7479 5.03798 15.8086C5.01287 15.8693 4.99996 15.9343 5 16V19C4.99996 19.0657 5.01287 19.1307 5.03798 19.1914C5.0631 19.2521 5.09993 19.3072 5.14636 19.3536C5.1928 19.4001 5.24793 19.4369 5.30861 19.462C5.36929 19.4871 5.43433 19.5 5.5 19.5H8.5C8.56567 19.5 8.63071 19.4871 8.69139 19.462C8.75207 19.4369 8.8072 19.4001 8.85364 19.3536C8.90007 19.3072 8.9369 19.2521 8.96202 19.1914C8.98713 19.1307 9.00004 19.0657 9 19V16ZM8 18.5H6V16.5H8V18.5ZM8.5 21.5H5.5C5.43433 21.5 5.36929 21.5129 5.30861 21.538C5.24793 21.5631 5.1928 21.5999 5.14636 21.6464C5.09993 21.6928 5.0631 21.7479 5.03798 21.8086C5.01287 21.8693 4.99996 21.9343 5 22V25C4.99996 25.0657 5.01287 25.1307 5.03798 25.1914C5.0631 25.2521 5.09993 25.3072 5.14636 25.3536C5.1928 25.4001 5.24793 25.4369 5.30861 25.462C5.36929 25.4871 5.43433 25.5 5.5 25.5H8.5C8.56567 25.5 8.63071 25.4871 8.69139 25.462C8.75207 25.4369 8.8072 25.4001 8.85364 25.3536C8.90007 25.3072 8.9369 25.2521 8.96202 25.1914C8.98713 25.1307 9.00004 25.0657 9 25V22C9.00004 21.9343 8.98713 21.8693 8.96202 21.8086C8.9369 21.7479 8.90007 21.6928 8.85364 21.6464C8.8072 21.5999 8.75207 21.5631 8.69139 21.538C8.63071 21.5129 8.56567 21.5 8.5 21.5ZM8 24.5H6V22.5H8V24.5ZM19 10C19 10.0657 18.9871 10.1307 18.962 10.1914C18.9369 10.2521 18.9001 10.3072 18.8536 10.3536C18.8072 10.4001 18.7521 10.4369 18.6914 10.462C18.6307 10.4871 18.5657 10.5 18.5 10.5H11C10.8674 10.5 10.7402 10.4473 10.6464 10.3536C10.5527 10.2598 10.5 10.1326 10.5 10C10.5 9.86739 10.5527 9.74022 10.6464 9.64645C10.7402 9.55268 10.8674 9.5 11 9.5H18.5C18.5657 9.49996 18.6307 9.51287 18.6914 9.53799C18.7521 9.5631 18.8072 9.59993 18.8536 9.64637C18.9001 9.6928 18.9369 9.74794 18.962 9.80862C18.9871 9.8693 19 9.93433 19 10ZM10.5 13C10.5 12.9343 10.5129 12.8693 10.538 12.8086C10.5631 12.7479 10.5999 12.6928 10.6464 12.6464C10.6928 12.5999 10.7479 12.5631 10.8086 12.538C10.8693 12.5129 10.9343 12.5 11 12.5H15.5C15.6326 12.5 15.7598 12.5527 15.8536 12.6464C15.9473 12.7402 16 12.8674 16 13C16 13.1326 15.9473 13.2598 15.8536 13.3536C15.7598 13.4473 15.6326 13.5 15.5 13.5H11C10.9343 13.5 10.8693 13.4871 10.8086 13.462C10.7479 13.4369 10.6928 13.4001 10.6464 13.3536C10.5999 13.3072 10.5631 13.2521 10.538 13.1914C10.5129 13.1307 10.5 13.0657 10.5 13ZM18.5 16.5H11C10.8674 16.5 10.7402 16.4473 10.6464 16.3536C10.5527 16.2598 10.5 16.1326 10.5 16C10.5 15.8674 10.5527 15.7402 10.6464 15.6464C10.7402 15.5527 10.8674 15.5 11 15.5H18.5C18.6326 15.5 18.7598 15.5527 18.8536 15.6464C18.9473 15.7402 19 15.8674 19 16C19 16.1326 18.9473 16.2598 18.8536 16.3536C18.7598 16.4473 18.6326 16.5 18.5 16.5ZM15.5 18.5C15.6326 18.5 15.7598 18.5527 15.8536 18.6464C15.9473 18.7402 16 18.8674 16 19C16 19.1326 15.9473 19.2598 15.8536 19.3536C15.7598 19.4473 15.6326 19.5 15.5 19.5H11C10.8674 19.5 10.7402 19.4473 10.6464 19.3536C10.5527 19.2598 10.5 19.1326 10.5 19C10.5 18.8674 10.5527 18.7402 10.6464 18.6464C10.7402 18.5527 10.8674 18.5 11 18.5H15.5ZM13 22C13 22.0657 12.9871 22.1307 12.962 22.1914C12.9369 22.2521 12.9001 22.3072 12.8536 22.3536C12.8072 22.4001 12.7521 22.4369 12.6914 22.462C12.6307 22.4871 12.5657 22.5 12.5 22.5H11C10.8674 22.5 10.7402 22.4473 10.6464 22.3536C10.5527 22.2598 10.5 22.1326 10.5 22C10.5 21.8674 10.5527 21.7402 10.6464 21.6464C10.7402 21.5527 10.8674 21.5 11 21.5H12.5C12.5657 21.5 12.6307 21.5129 12.6914 21.538C12.7521 21.5631 12.8072 21.5999 12.8536 21.6464C12.9001 21.6928 12.9369 21.7479 12.962 21.8086C12.9871 21.8693 13 21.9343 13 22ZM13 25C13 25.0657 12.9871 25.1307 12.962 25.1914C12.9369 25.2521 12.9001 25.3072 12.8536 25.3536C12.8072 25.4001 12.7521 25.4369 12.6914 25.462C12.6307 25.4871 12.5657 25.5 12.5 25.5H11C10.8674 25.5 10.7402 25.4473 10.6464 25.3536C10.5527 25.2598 10.5 25.1326 10.5 25C10.5 24.8674 10.5527 24.7402 10.6464 24.6464C10.7402 24.5527 10.8674 24.5 11 24.5H12.5C12.5657 24.5 12.6307 24.5129 12.6914 24.538C12.7521 24.5631 12.8072 24.5999 12.8536 24.6464C12.9001 24.6928 12.9369 24.7479 12.962 24.8086C12.9871 24.8693 13 24.9343 13 25ZM29.207 21L29.5 20.707C29.6585 20.5485 29.7843 20.3604 29.8701 20.1532C29.9558 19.9461 30 19.7242 30 19.5C30 19.2758 29.9558 19.0539 29.8701 18.8468C29.7843 18.6397 29.6585 18.4515 29.5 18.293L29.207 18L29.707 17.5C29.8944 17.3124 29.9996 17.0581 29.9996 16.793C29.9996 16.5278 29.8944 16.2735 29.707 16.0859L28.9141 15.293C28.7263 15.1058 28.4721 15.0007 28.207 15.0007C27.942 15.0007 27.6877 15.1058 27.5 15.293L27 15.793L26.707 15.5C26.3818 15.1897 25.9495 15.0166 25.5 15.0166C25.0505 15.0166 24.6182 15.1897 24.293 15.5L24 15.793L23.707 15.5C23.3818 15.1897 22.9495 15.0166 22.5 15.0166C22.0505 15.0166 21.6182 15.1897 21.293 15.5L21 15.793C20.8415 15.9515 20.7157 16.1397 20.6299 16.3468C20.5442 16.5539 20.5 16.7758 20.5 17C20.5 17.2242 20.5442 17.4461 20.6299 17.6532C20.7157 17.8604 20.8415 18.0485 21 18.207L22.793 20L19 23.793L17.207 22C16.8818 21.6897 16.4495 21.5166 16 21.5166C15.5505 21.5166 15.1182 21.6897 14.793 22L14.5 22.293C14.3415 22.4515 14.2157 22.6397 14.1299 22.8468C14.0442 23.0539 14 23.2758 14 23.5C14 23.7242 14.0442 23.9461 14.1299 24.1532C14.2157 24.3604 14.3415 24.5485 14.5 24.707L14.793 25L14.5 25.293C14.3415 25.4515 14.2157 25.6397 14.1299 25.8468C14.0442 26.0539 14 26.2758 14 26.5C14 26.7242 14.0442 26.9461 14.1299 27.1532C14.2157 27.3604 14.3415 27.5485 14.5 27.707L14.793 28L14.293 28.5C14.1056 28.6876 14.0004 28.9419 14.0004 29.207C14.0004 29.4722 14.1056 29.7265 14.293 29.9141L15.0859 30.707C15.2736 30.8943 15.5279 30.9995 15.793 30.9995C16.0581 30.9995 16.3124 30.8943 16.5 30.707L17 30.207L17.293 30.5C17.4515 30.6585 17.6397 30.7843 17.8468 30.8701C18.0539 30.9558 18.2758 31 18.5 31C18.7242 31 18.9461 30.9558 19.1532 30.8701C19.3603 30.7843 19.5485 30.6585 19.707 30.5L20 30.207L20.293 30.5C20.4515 30.6585 20.6397 30.7843 20.8468 30.8701C21.0539 30.9558 21.2758 31 21.5 31C21.7242 31 21.9461 30.9558 22.1532 30.8701C22.3603 30.7843 22.5485 30.6585 22.707 30.5L23 30.207C23.1585 30.0485 23.2843 29.8604 23.3701 29.6532C23.4558 29.4461 23.5 29.2242 23.5 29C23.5 28.7758 23.4558 28.5539 23.3701 28.3468C23.2843 28.1397 23.1585 27.9515 23 27.793L21.207 26L25 22.207L26.793 24C26.9515 24.1585 27.1397 24.2843 27.3468 24.3701C27.5539 24.4558 27.7758 24.5 28 24.5C28.2242 24.5 28.4461 24.4558 28.6532 24.3701C28.8603 24.2843 29.0485 24.1585 29.207 24L29.5 23.707C29.6585 23.5485 29.7843 23.3604 29.8701 23.1532C29.9558 22.9461 30 22.7242 30 22.5C30 22.2758 29.9558 22.0539 29.8701 21.8468C29.7843 21.6397 29.6585 21.4515 29.5 21.293L29.207 21ZM15.793 30L15 29.207L15.5 28.707L16.293 29.5L15.793 30ZM19 29.793C18.8652 29.9213 18.6862 29.9929 18.5 29.9929C18.3138 29.9929 18.1348 29.9213 18 29.793L15.207 27C15.0745 26.8674 15 26.6875 15 26.5C15 26.3125 15.0745 26.1326 15.207 26L15.5 25.707L19.293 29.5L19 29.793ZM22.293 28.5C22.4255 28.6326 22.5 28.8125 22.5 29C22.5 29.1875 22.4255 29.3674 22.293 29.5L22 29.793C21.8652 29.9213 21.6862 29.9929 21.5 29.9929C21.3138 29.9929 21.1348 29.9213 21 29.793L15.207 24C15.0745 23.8674 15 23.6875 15 23.5C15 23.3125 15.0745 23.1326 15.207 23L15.5 22.707C15.6326 22.5745 15.8125 22.5 16 22.5C16.1875 22.5 16.3674 22.5745 16.5 22.707L22.293 28.5ZM20.5 25.293L19.707 24.5L23.5 20.707L24.293 21.5L20.5 25.293ZM28.793 23L28.5 23.293C28.3652 23.4213 28.1862 23.4929 28 23.4929C27.8138 23.4929 27.6348 23.4213 27.5 23.293L21.707 17.5C21.5745 17.3674 21.5 17.1875 21.5 17C21.5 16.8125 21.5745 16.6326 21.707 16.5L22 16.207C22.1326 16.0745 22.3125 16 22.5 16C22.6875 16 22.8674 16.0745 23 16.207L28.793 22C28.9255 22.1326 29 22.3125 29 22.5C29 22.6875 28.9255 22.8674 28.793 23ZM28.793 20L28.5 20.293L24.707 16.5L25 16.207C25.1348 16.0787 25.3138 16.0071 25.5 16.0071C25.6862 16.0071 25.8652 16.0787 26 16.207L28.793 19C28.9255 19.1326 29 19.3125 29 19.5C29 19.6875 28.9255 19.8674 28.793 20ZM28.5 17.293L27.707 16.5L28.207 16L29 16.793L28.5 17.293Z" fill="#7E7E7E"/>
</svg>
