<svg width="26" height="32" viewBox="0 0 26 32" fill="none" xmlns="http://www.w3.org/2000/svg">
<path d="M22.5005 0H3.50005C1.98744 0 0.756836 1.2306 0.756836 2.74322V4.39293C0.756836 4.65176 0.966675 4.8616 1.22551 4.8616C1.48434 4.8616 1.69417 4.65176 1.69417 4.39293V2.74322C1.69417 1.74745 2.50429 0.937339 3.50005 0.937339H22.5005C23.4963 0.937339 24.3064 1.74745 24.3064 2.74322V29.2568C24.3064 30.2525 23.4963 31.0627 22.5005 31.0627H3.50005C2.50429 31.0627 1.69417 30.2525 1.69417 29.2568V6.26761C1.69417 6.00878 1.48434 5.79894 1.22551 5.79894C0.966675 5.79894 0.756836 6.00878 0.756836 6.26761V29.2568C0.756836 30.7694 1.98744 32 3.50005 32H22.5005C24.0132 32 25.2438 30.7694 25.2438 29.2568V2.74322C25.2438 1.2306 24.0132 0 22.5005 0Z" fill="#7E7E7E"/>
<path d="M2.62305 3.83879V21.5469C2.62305 21.8057 2.83289 22.0155 3.09172 22.0155C3.35055 22.0155 3.56039 21.8057 3.56039 21.5469V4.30746H22.4403V10.7347C22.4403 10.9936 22.6501 11.2034 22.9089 11.2034C23.1678 11.2034 23.3776 10.9936 23.3776 10.7347V3.83879C23.3776 3.57996 23.1678 3.37012 22.9089 3.37012H3.09172C2.83282 3.37012 2.62305 3.57996 2.62305 3.83879Z" fill="#7E7E7E"/>
<path d="M2.62305 26.997C2.62305 27.2559 2.83289 27.4657 3.09172 27.4657H22.9089C23.1678 27.4657 23.3776 27.2559 23.3776 26.997V12.6103C23.3776 12.3514 23.1678 12.1416 22.9089 12.1416C22.6501 12.1416 22.4403 12.3514 22.4403 12.6103V26.5284H3.56039V23.4225C3.56039 23.1636 3.35055 22.9538 3.09172 22.9538C2.83289 22.9538 2.62305 23.1636 2.62305 23.4225V26.997Z" fill="#7E7E7E"/>
<path d="M11.5723 29.1533C11.5723 29.9406 12.2127 30.5811 13 30.5811C13.7873 30.5811 14.4278 29.9406 14.4278 29.1533C14.4278 28.3661 13.7873 27.7256 13 27.7256C12.2127 27.7256 11.5723 28.3661 11.5723 29.1533ZM13.4904 29.1533C13.4904 29.4238 13.2704 29.6438 13 29.6438C12.7296 29.6438 12.5096 29.4238 12.5096 29.1533C12.5096 28.8829 12.7296 28.6629 13 28.6629C13.2704 28.6629 13.4904 28.8829 13.4904 29.1533Z" fill="#7E7E7E"/>
<path d="M15.0247 2.61312C15.2836 2.61312 15.4934 2.40328 15.4934 2.14445C15.4934 1.88562 15.2836 1.67578 15.0247 1.67578H12.8886C12.6298 1.67578 12.4199 1.88562 12.4199 2.14445C12.4199 2.40328 12.6298 2.61312 12.8886 2.61312H15.0247Z" fill="#7E7E7E"/>
<path d="M11.1005 2.61117C11.3593 2.61117 11.5692 2.40134 11.5692 2.1425C11.5692 1.88366 11.3593 1.67383 11.1005 1.67383C10.8417 1.67383 10.6318 1.88366 10.6318 2.1425C10.6318 2.40134 10.8417 2.61117 11.1005 2.61117Z" fill="#7E7E7E"/>
</svg>
