<svg width="32" height="32" viewBox="0 0 32 32" fill="none" xmlns="http://www.w3.org/2000/svg">
<path d="M24.125 26.0833H25.9584C26.323 26.0833 26.6728 25.9385 26.9306 25.6806C27.1885 25.4227 27.3334 25.073 27.3334 24.7083V18.2917C27.3334 17.927 27.1885 17.5773 26.9306 17.3194C26.6728 17.0615 26.323 16.9167 25.9584 16.9167H24.125C23.7604 16.9167 23.4106 17.0615 23.1528 17.3194C22.8949 17.5773 22.75 17.927 22.75 18.2917V19.6667H20.9167V14.625H22.75C22.75 14.9897 22.8949 15.3394 23.1528 15.5973C23.4106 15.8551 23.7604 16 24.125 16H25.0417C25.4064 16 25.7561 15.8551 26.014 15.5973C26.2718 15.3394 26.4167 14.9897 26.4167 14.625V10.9583C26.4167 10.5937 26.2718 10.2439 26.014 9.98606C25.7561 9.72819 25.4064 9.58333 25.0417 9.58333H24.125C23.7604 9.58333 23.4106 9.72819 23.1528 9.98606C22.8949 10.2439 22.75 10.5937 22.75 10.9583H20.9167V7.75H21.9177C22.0122 8.01716 22.1869 8.24862 22.4179 8.4127C22.6489 8.57679 22.925 8.66549 23.2084 8.66666H24.125C24.4897 8.66666 24.8394 8.5218 25.0973 8.26393C25.3552 8.00607 25.5 7.65633 25.5 7.29166V5.45833C25.5 5.09366 25.3552 4.74392 25.0973 4.48606C24.8394 4.22819 24.4897 4.08333 24.125 4.08333H23.2084C22.925 4.0845 22.6489 4.1732 22.4179 4.33729C22.1869 4.50137 22.0122 4.73283 21.9177 4.99999H20.9167V3.62499C20.916 3.01743 20.6743 2.43496 20.2447 2.00535C19.8151 1.57573 19.2326 1.33406 18.625 1.33333L14.0417 1.33333C13.4341 1.33406 12.8517 1.57573 12.4221 2.00535C11.9924 2.43496 11.7508 3.01743 11.75 3.62499V4.99999H10.749C10.6546 4.73283 10.4799 4.50137 10.2489 4.33729C10.0178 4.1732 9.74174 4.0845 9.45837 4.08333H8.54171C8.17703 4.08333 7.8273 4.22819 7.56944 4.48606C7.31157 4.74392 7.16671 5.09366 7.16671 5.45833V7.29166C7.16671 7.65633 7.31157 8.00607 7.56944 8.26393C7.8273 8.5218 8.17703 8.66666 8.54171 8.66666H9.45837C9.74174 8.66549 10.0178 8.57679 10.2489 8.4127C10.4799 8.24862 10.6546 8.01716 10.749 7.75H11.75V10.9583H9.91671C9.91671 10.5937 9.77184 10.2439 9.51398 9.98606C9.25612 9.72819 8.90638 9.58333 8.54171 9.58333H7.62504C7.26037 9.58333 6.91063 9.72819 6.65277 9.98606C6.39491 10.2439 6.25004 10.5937 6.25004 10.9583V14.625C6.25004 14.9897 6.39491 15.3394 6.65277 15.5973C6.91063 15.8551 7.26037 16 7.62504 16H8.54171C8.90638 16 9.25612 15.8551 9.51398 15.5973C9.77184 15.3394 9.91671 14.9897 9.91671 14.625H11.75V19.6667H9.91671V18.2917C9.91671 17.927 9.77184 17.5773 9.51398 17.3194C9.25612 17.0615 8.90638 16.9167 8.54171 16.9167H6.70837C6.3437 16.9167 5.99396 17.0615 5.7361 17.3194C5.47824 17.5773 5.33337 17.927 5.33337 18.2917V24.7083C5.33337 25.073 5.47824 25.4227 5.7361 25.6806C5.99396 25.9385 6.3437 26.0833 6.70837 26.0833H8.54171C8.90638 26.0833 9.25612 25.9385 9.51398 25.6806C9.77184 25.4227 9.91671 25.073 9.91671 24.7083V23.3333H11.75V27H6.70837C6.3437 27 5.99396 27.1449 5.7361 27.4027C5.47824 27.6606 5.33337 28.0103 5.33337 28.375V29.2917C5.33337 29.6563 5.47824 30.0061 5.7361 30.2639C5.99396 30.5218 6.3437 30.6667 6.70837 30.6667H25.9584C26.323 30.6667 26.6728 30.5218 26.9306 30.2639C27.1885 30.0061 27.3334 29.6563 27.3334 29.2917V28.375C27.3334 28.0103 27.1885 27.6606 26.9306 27.4027C26.6728 27.1449 26.323 27 25.9584 27H20.9167V23.3333H22.75V24.7083C22.75 25.073 22.8949 25.4227 23.1528 25.6806C23.4106 25.9385 23.7604 26.0833 24.125 26.0833ZM23.6667 18.2917C23.6667 18.1701 23.715 18.0535 23.801 17.9676C23.8869 17.8816 24.0035 17.8333 24.125 17.8333H25.9584C26.0799 17.8333 26.1965 17.8816 26.2825 17.9676C26.3684 18.0535 26.4167 18.1701 26.4167 18.2917V24.7083C26.4167 24.8299 26.3684 24.9465 26.2825 25.0324C26.1965 25.1184 26.0799 25.1667 25.9584 25.1667H24.125C24.0035 25.1667 23.8869 25.1184 23.801 25.0324C23.715 24.9465 23.6667 24.8299 23.6667 24.7083V18.2917ZM20 19.6667H19.0834V14.625H20V19.6667ZM14.5 19.6667V14.625H18.1667V19.6667H14.5ZM23.6667 10.9583C23.6667 10.8368 23.715 10.7202 23.801 10.6342C23.8869 10.5483 24.0035 10.5 24.125 10.5H25.0417C25.1633 10.5 25.2798 10.5483 25.3658 10.6342C25.4518 10.7202 25.5 10.8368 25.5 10.9583V14.625C25.5 14.7466 25.4518 14.8631 25.3658 14.9491C25.2798 15.035 25.1633 15.0833 25.0417 15.0833H24.125C24.0035 15.0833 23.8869 15.035 23.801 14.9491C23.715 14.8631 23.6667 14.7466 23.6667 14.625V10.9583ZM20 10.9583H19.0834V9.125C19.0834 9.00344 19.0351 8.88686 18.9491 8.8009C18.8632 8.71495 18.7466 8.66666 18.625 8.66666C18.5035 8.66666 18.3869 8.71495 18.301 8.8009C18.215 8.88686 18.1667 9.00344 18.1667 9.125V10.9583H14.5V7.75H20V10.9583ZM23.2084 4.99999H24.125C24.2466 4.99999 24.3632 5.04828 24.4491 5.13424C24.5351 5.22019 24.5834 5.33677 24.5834 5.45833V7.29166C24.5834 7.41322 24.5351 7.5298 24.4491 7.61575C24.3632 7.70171 24.2466 7.75 24.125 7.75H23.2084C23.0868 7.75 22.9702 7.70171 22.8843 7.61575C22.7983 7.5298 22.75 7.41322 22.75 7.29166V5.45833C22.75 5.33677 22.7983 5.22019 22.8843 5.13424C22.9702 5.04828 23.0868 4.99999 23.2084 4.99999ZM12.6667 3.62499C12.6667 3.26032 12.8116 2.91059 13.0694 2.65272C13.3273 2.39486 13.677 2.24999 14.0417 2.24999H18.625C18.9897 2.24999 19.3394 2.39486 19.5973 2.65272C19.8552 2.91059 20 3.26032 20 3.62499V4.99999H19.0834V4.54166C19.0834 4.17699 18.9385 3.82725 18.6806 3.56939C18.4228 3.31153 18.073 3.16666 17.7084 3.16666H14.9584C14.5937 3.16666 14.244 3.31153 13.9861 3.56939C13.7282 3.82725 13.5834 4.17699 13.5834 4.54166V4.99999H12.6667V3.62499ZM14.5 4.99999V4.54166C14.5 4.4201 14.5483 4.30353 14.6343 4.21757C14.7202 4.13162 14.8368 4.08333 14.9584 4.08333H17.7084C17.8299 4.08333 17.9465 4.13162 18.0325 4.21757C18.1184 4.30353 18.1667 4.4201 18.1667 4.54166V4.99999H14.5ZM9.45837 7.75H8.54171C8.42015 7.75 8.30357 7.70171 8.21762 7.61575C8.13166 7.5298 8.08337 7.41322 8.08337 7.29166V5.45833C8.08337 5.33677 8.13166 5.22019 8.21762 5.13424C8.30357 5.04828 8.42015 4.99999 8.54171 4.99999H9.45837C9.57993 4.99999 9.69651 5.04828 9.78246 5.13424C9.86842 5.22019 9.91671 5.33677 9.91671 5.45833V7.29166C9.91671 7.41322 9.86842 7.5298 9.78246 7.61575C9.69651 7.70171 9.57993 7.75 9.45837 7.75ZM10.8334 5.91666H21.8334V6.83333H10.8334V5.91666ZM12.6667 7.75H13.5834V10.9583H12.6667V7.75ZM9.00004 14.625C9.00004 14.7466 8.95175 14.8631 8.8658 14.9491C8.77984 15.035 8.66326 15.0833 8.54171 15.0833H7.62504C7.50348 15.0833 7.3869 15.035 7.30095 14.9491C7.215 14.8631 7.16671 14.7466 7.16671 14.625V10.9583C7.16671 10.8368 7.215 10.7202 7.30095 10.6342C7.3869 10.5483 7.50348 10.5 7.62504 10.5H8.54171C8.66326 10.5 8.77984 10.5483 8.8658 10.6342C8.95175 10.7202 9.00004 10.8368 9.00004 10.9583V14.625ZM9.91671 11.875H22.75V13.7083H9.91671V11.875ZM12.6667 14.625H13.5834V19.6667H12.6667V14.625ZM9.00004 24.7083C9.00004 24.8299 8.95175 24.9465 8.8658 25.0324C8.77984 25.1184 8.66326 25.1667 8.54171 25.1667H6.70837C6.58682 25.1667 6.47024 25.1184 6.38428 25.0324C6.29833 24.9465 6.25004 24.8299 6.25004 24.7083V18.2917C6.25004 18.1701 6.29833 18.0535 6.38428 17.9676C6.47024 17.8816 6.58682 17.8333 6.70837 17.8333H8.54171C8.66326 17.8333 8.77984 17.8816 8.8658 17.9676C8.95175 18.0535 9.00004 18.1701 9.00004 18.2917V24.7083ZM12.6667 23.3333H18.1667V27H14.5V24.7083C14.5 24.5868 14.4518 24.4702 14.3658 24.3842C14.2798 24.2983 14.1633 24.25 14.0417 24.25C13.9201 24.25 13.8036 24.2983 13.7176 24.3842C13.6317 24.4702 13.5834 24.5868 13.5834 24.7083V27H12.6667V23.3333ZM26.4167 28.375V29.2917C26.4167 29.4132 26.3684 29.5298 26.2825 29.6158C26.1965 29.7017 26.0799 29.75 25.9584 29.75H6.70837C6.58682 29.75 6.47024 29.7017 6.38428 29.6158C6.29833 29.5298 6.25004 29.4132 6.25004 29.2917V28.375C6.25004 28.2534 6.29833 28.1369 6.38428 28.0509C6.47024 27.965 6.58682 27.9167 6.70837 27.9167H25.9584C26.0799 27.9167 26.1965 27.965 26.2825 28.0509C26.3684 28.1369 26.4167 28.2534 26.4167 28.375ZM20 27H19.0834V23.3333H20V27ZM9.91671 22.4167V20.5833H22.75V22.4167H9.91671Z" fill="#7E7E7E"/>
</svg>
