<svg width="32" height="32" viewBox="0 0 32 32" fill="none" xmlns="http://www.w3.org/2000/svg">
<path d="M19.0001 16H1.66675M1.66675 16L6.33341 12M1.66675 16L6.33341 20" stroke="#7E7E7E" stroke-width="1.5" stroke-linecap="round" stroke-linejoin="round"/>
<path d="M11.0028 9.33335C11.0188 6.43335 11.1481 4.86269 12.1721 3.83869C13.3441 2.66669 15.2295 2.66669 19.0001 2.66669H20.3335C24.1055 2.66669 25.9908 2.66669 27.1628 3.83869C28.3335 5.00935 28.3335 6.89602 28.3335 10.6667V21.3334C28.3335 25.104 28.3335 26.9907 27.1628 28.1614C26.1375 29.1867 24.5668 29.3147 21.6668 29.3307M11.0028 22.6667C11.0188 25.5667 11.1481 27.1374 12.1721 28.1614C13.0268 29.0174 14.2628 29.248 16.3335 29.3107" stroke="#7E7E7E" stroke-width="1.5" stroke-linecap="round"/>
</svg>
