<svg width="32" height="32" viewBox="0 0 32 32" fill="none" xmlns="http://www.w3.org/2000/svg">
<path d="M13.6436 22.7297H5.98144C5.7225 22.7297 5.51269 22.9396 5.51269 23.1985C5.51269 23.4574 5.7225 23.6672 5.98144 23.6672H13.6436C13.9025 23.6672 14.1123 23.4574 14.1123 23.1985C14.1123 22.9396 13.9024 22.7297 13.6436 22.7297ZM13.6436 19.9172H5.98144C5.7225 19.9172 5.51269 20.1271 5.51269 20.386C5.51269 20.6449 5.7225 20.8547 5.98144 20.8547H13.6436C13.9025 20.8547 14.1123 20.6449 14.1123 20.386C14.1123 20.1271 13.9024 19.9172 13.6436 19.9172ZM26.0186 11.4797H18.3564C18.0975 11.4797 17.8877 11.6896 17.8877 11.9485C17.8877 12.2074 18.0975 12.4172 18.3564 12.4172H26.0186C26.2775 12.4172 26.4873 12.2074 26.4873 11.9485C26.4873 11.6896 26.2774 11.4797 26.0186 11.4797ZM30.5938 10.5207H28.8438V9.04019C28.8438 8.5405 28.4372 8.13394 27.9375 8.13394H19.125C17.7872 8.13394 16.6186 8.86925 16 9.95638C15.3814 8.86919 14.2128 8.13394 12.875 8.13394H4.0625C3.56281 8.13394 3.15625 8.5405 3.15625 9.04019V10.5207H1.40625C0.630875 10.5207 0 11.1516 0 11.9269V28.0401C0 28.8154 0.630875 29.4463 1.40625 29.4463H30.5938C31.3691 29.4463 32 28.8154 32 28.0401V11.9269C32 11.1516 31.3691 10.5207 30.5938 10.5207ZM1.40625 28.5088C1.14775 28.5088 0.9375 28.2986 0.9375 28.0401V11.9269C0.9375 11.6684 1.14775 11.4582 1.40625 11.4582H3.15625V25.7277C3.15625 26.2274 3.56281 26.6339 4.0625 26.6339H11.6761C13.1053 26.6339 14.4227 27.3507 15.2059 28.5088H1.40625ZM15.5312 27.4077C14.5617 26.3371 13.1687 25.6964 11.6761 25.6964H4.09375V9.07138H12.875C14.3397 9.07138 15.5312 10.2629 15.5312 11.7276V27.4077ZM31.0625 28.0401C31.0625 28.2986 30.8522 28.5088 30.5938 28.5088H16.794C17.5772 27.3507 18.8947 26.6339 20.3239 26.6339H27.9375C28.4372 26.6339 28.8438 26.2274 28.8438 25.7277V21.6022C28.8438 21.3433 28.6339 21.1334 28.375 21.1334C28.1161 21.1334 27.9062 21.3433 27.9062 21.6022V25.6964H20.3239C18.8313 25.6964 17.4383 26.3371 16.4688 27.4078V11.7277C16.4688 10.263 17.6603 9.07144 19.125 9.07144H27.9062V19.4147C27.9062 19.6736 28.1161 19.8834 28.375 19.8834C28.6339 19.8834 28.8438 19.6736 28.8438 19.4147V11.4582H30.5938C30.8522 11.4582 31.0625 11.6684 31.0625 11.9269V28.0401ZM3.64587 5.1915L5.07444 6.29838C5.12731 6.3255 5.17456 6.3895 5.36144 6.39656H10.5802C10.8392 6.39656 11.049 6.18675 11.049 5.92781C11.049 5.66888 10.8392 5.45906 10.5802 5.45906H6.20312C6.29256 5.24156 6.36231 4.989 6.387 4.70381C6.42812 4.23013 6.33063 3.81875 6.19494 3.49119H24.9554V5.45906H12.7677C12.5088 5.45906 12.299 5.66888 12.299 5.92781C12.299 6.18675 12.5088 6.39656 12.7677 6.39656H27.6116C28.2146 6.39656 28.7053 5.90588 28.7053 5.30281V3.64744C28.7053 3.04438 28.2146 2.55369 27.6116 2.55369H5.36156C5.31031 2.57363 5.31463 2.51 5.07444 2.65188L3.64594 3.75875C3.42275 3.93169 3.29469 4.19275 3.29469 4.47519C3.29469 4.75763 3.42275 5.01869 3.64587 5.1915ZM25.8928 3.49119H27.6116C27.6978 3.49119 27.7678 3.56125 27.7678 3.64744V5.30281C27.7678 5.389 27.6978 5.45906 27.6116 5.45906H25.8928V3.49119ZM5.25863 3.69519C5.37919 3.92506 5.48588 4.244 5.453 4.62288C5.43106 4.87569 5.35306 5.08894 5.26281 5.25838L4.25194 4.47519L5.25863 3.69519ZM13.6436 17.1047H5.98144C5.7225 17.1047 5.51269 17.3146 5.51269 17.5735C5.51269 17.8324 5.7225 18.0422 5.98144 18.0422H13.6436C13.9025 18.0422 14.1123 17.8324 14.1123 17.5735C14.1123 17.3146 13.9024 17.1047 13.6436 17.1047ZM26.0186 22.7297H18.3564C18.0975 22.7297 17.8877 22.9396 17.8877 23.1985C17.8877 23.4574 18.0975 23.6672 18.3564 23.6672H26.0186C26.2775 23.6672 26.4873 23.4574 26.4873 23.1985C26.4873 22.9396 26.2774 22.7297 26.0186 22.7297ZM26.0186 19.9172H18.3564C18.0975 19.9172 17.8877 20.1271 17.8877 20.386C17.8877 20.6449 18.0975 20.8547 18.3564 20.8547H26.0186C26.2775 20.8547 26.4873 20.6449 26.4873 20.386C26.4873 20.1271 26.2774 19.9172 26.0186 19.9172ZM26.0186 14.2922H18.3564C18.0975 14.2922 17.8877 14.5021 17.8877 14.761C17.8877 15.0199 18.0975 15.2297 18.3564 15.2297H26.0186C26.2775 15.2297 26.4873 15.0199 26.4873 14.761C26.4873 14.5021 26.2774 14.2922 26.0186 14.2922ZM13.6436 14.2922H5.98144C5.7225 14.2922 5.51269 14.5021 5.51269 14.761C5.51269 15.0199 5.7225 15.2297 5.98144 15.2297H13.6436C13.9025 15.2297 14.1123 15.0199 14.1123 14.761C14.1123 14.5021 13.9024 14.2922 13.6436 14.2922ZM13.6436 11.4797H5.98144C5.7225 11.4797 5.51269 11.6896 5.51269 11.9485C5.51269 12.2074 5.7225 12.4172 5.98144 12.4172H13.6436C13.9025 12.4172 14.1123 12.2074 14.1123 11.9485C14.1123 11.6896 13.9024 11.4797 13.6436 11.4797ZM26.0186 17.1047H18.3564C18.0975 17.1047 17.8877 17.3146 17.8877 17.5735C17.8877 17.8324 18.0975 18.0422 18.3564 18.0422H26.0186C26.2775 18.0422 26.4873 17.8324 26.4873 17.5735C26.4873 17.3146 26.2774 17.1047 26.0186 17.1047Z" fill="#7E7E7E"/>
</svg>
