<svg width="32" height="32" viewBox="0 0 32 32" fill="none" xmlns="http://www.w3.org/2000/svg">
<path d="M25.5005 0H6.50005C4.98744 0 3.75684 1.2306 3.75684 2.74322V4.39293C3.75684 4.65176 3.96667 4.8616 4.22551 4.8616C4.48434 4.8616 4.69417 4.65176 4.69417 4.39293V2.74322C4.69417 1.74745 5.50429 0.937339 6.50005 0.937339H25.5005C26.4963 0.937339 27.3064 1.74745 27.3064 2.74322V29.2568C27.3064 30.2525 26.4963 31.0627 25.5005 31.0627H6.50005C5.50429 31.0627 4.69417 30.2525 4.69417 29.2568V6.26761C4.69417 6.00878 4.48434 5.79894 4.22551 5.79894C3.96667 5.79894 3.75684 6.00878 3.75684 6.26761V29.2568C3.75684 30.7694 4.98744 32 6.50005 32H25.5005C27.0132 32 28.2438 30.7694 28.2438 29.2568V2.74322C28.2438 1.2306 27.0132 0 25.5005 0Z" fill="#FF2800"/>
<path d="M5.62305 3.83879V21.5469C5.62305 21.8057 5.83289 22.0155 6.09172 22.0155C6.35055 22.0155 6.56039 21.8057 6.56039 21.5469V4.30746H25.4403V10.7347C25.4403 10.9936 25.6501 11.2034 25.9089 11.2034C26.1678 11.2034 26.3776 10.9936 26.3776 10.7347V3.83879C26.3776 3.57996 26.1678 3.37012 25.9089 3.37012H6.09172C5.83282 3.37012 5.62305 3.57996 5.62305 3.83879Z" fill="#FF2800"/>
<path d="M5.62305 26.997C5.62305 27.2559 5.83289 27.4657 6.09172 27.4657H25.9089C26.1678 27.4657 26.3776 27.2559 26.3776 26.997V12.6103C26.3776 12.3514 26.1678 12.1416 25.9089 12.1416C25.6501 12.1416 25.4403 12.3514 25.4403 12.6103V26.5284H6.56039V23.4225C6.56039 23.1636 6.35055 22.9538 6.09172 22.9538C5.83289 22.9538 5.62305 23.1636 5.62305 23.4225V26.997Z" fill="#FF2800"/>
<path d="M14.5723 29.1533C14.5723 29.9406 15.2127 30.5811 16 30.5811C16.7873 30.5811 17.4278 29.9406 17.4278 29.1533C17.4278 28.3661 16.7873 27.7256 16 27.7256C15.2127 27.7256 14.5723 28.3661 14.5723 29.1533ZM16.4904 29.1533C16.4904 29.4238 16.2704 29.6438 16 29.6438C15.7296 29.6438 15.5096 29.4238 15.5096 29.1533C15.5096 28.8829 15.7296 28.6629 16 28.6629C16.2704 28.6629 16.4904 28.8829 16.4904 29.1533Z" fill="#FF2800"/>
<path d="M18.0247 2.61312C18.2836 2.61312 18.4934 2.40328 18.4934 2.14445C18.4934 1.88562 18.2836 1.67578 18.0247 1.67578H15.8886C15.6298 1.67578 15.4199 1.88562 15.4199 2.14445C15.4199 2.40328 15.6298 2.61312 15.8886 2.61312H18.0247Z" fill="#FF2800"/>
<path d="M14.1005 2.61117C14.3593 2.61117 14.5692 2.40134 14.5692 2.1425C14.5692 1.88366 14.3593 1.67383 14.1005 1.67383C13.8417 1.67383 13.6318 1.88366 13.6318 2.1425C13.6318 2.40134 13.8417 2.61117 14.1005 2.61117Z" fill="#FF2800"/>
</svg>
