<svg width="30" height="30" viewBox="0 0 30 30" fill="none" xmlns="http://www.w3.org/2000/svg">
<path d="M19.0001 15H1.66675M1.66675 15L6.33341 11M1.66675 15L6.33341 19" stroke="#FF2800" stroke-width="1.5" stroke-linecap="round" stroke-linejoin="round"/>
<path d="M11.0028 8.33341C11.0188 5.43341 11.1481 3.86275 12.1721 2.83875C13.3441 1.66675 15.2295 1.66675 19.0001 1.66675H20.3335C24.1055 1.66675 25.9908 1.66675 27.1628 2.83875C28.3335 4.00941 28.3335 5.89608 28.3335 9.66675V20.3334C28.3335 24.1041 28.3335 25.9907 27.1628 27.1614C26.1375 28.1867 24.5668 28.3147 21.6668 28.3307M11.0028 21.6667C11.0188 24.5667 11.1481 26.1374 12.1721 27.1614C13.0268 28.0174 14.2628 28.2481 16.3335 28.3107" stroke="#FF2800" stroke-width="1.5" stroke-linecap="round"/>
</svg>
