<svg width="40" height="40" viewBox="0 0 40 40" fill="none" xmlns="http://www.w3.org/2000/svg">
<path d="M30.5004 9.51606C30.3462 9.36156 30.163 9.23898 29.9614 9.15534C29.7598 9.07171 29.5437 9.02866 29.3254 9.02866C29.1071 9.02866 28.891 9.07171 28.6893 9.15534C28.4877 9.23898 28.3046 9.36156 28.1504 9.51606L20.0004 17.6494L11.8504 9.4994C11.6961 9.34509 11.5129 9.22269 11.3113 9.13918C11.1097 9.05568 10.8936 9.0127 10.6754 9.0127C10.4572 9.0127 10.2411 9.05568 10.0395 9.13918C9.83786 9.22269 9.65468 9.34509 9.50037 9.4994C9.34607 9.6537 9.22367 9.83688 9.14016 10.0385C9.05665 10.2401 9.01367 10.4562 9.01367 10.6744C9.01367 10.8926 9.05665 11.1087 9.14016 11.3103C9.22367 11.5119 9.34607 11.6951 9.50037 11.8494L17.6504 19.9994L9.50037 28.1494C9.34607 28.3037 9.22367 28.4869 9.14016 28.6885C9.05665 28.8901 9.01367 29.1062 9.01367 29.3244C9.01367 29.5426 9.05665 29.7587 9.14016 29.9603C9.22367 30.1619 9.34607 30.3451 9.50037 30.4994C9.65468 30.6537 9.83786 30.7761 10.0395 30.8596C10.2411 30.9431 10.4572 30.9861 10.6754 30.9861C10.8936 30.9861 11.1097 30.9431 11.3113 30.8596C11.5129 30.7761 11.6961 30.6537 11.8504 30.4994L20.0004 22.3494L28.1504 30.4994C28.3047 30.6537 28.4879 30.7761 28.6895 30.8596C28.8911 30.9431 29.1072 30.9861 29.3254 30.9861C29.5436 30.9861 29.7597 30.9431 29.9613 30.8596C30.1629 30.7761 30.3461 30.6537 30.5004 30.4994C30.6547 30.3451 30.7771 30.1619 30.8606 29.9603C30.9441 29.7587 30.9871 29.5426 30.9871 29.3244C30.9871 29.1062 30.9441 28.8901 30.8606 28.6885C30.7771 28.4869 30.6547 28.3037 30.5004 28.1494L22.3504 19.9994L30.5004 11.8494C31.1337 11.2161 31.1337 10.1494 30.5004 9.51606Z" fill="#FF2800"/>
</svg>
